<svg width="19" height="20" viewBox="0 0 19 20" fill="none" xmlns="http://www.w3.org/2000/svg">
<path d="M8.12109 9.287L9.36903 8.03906L10.201 8.87102L8.95305 10.119L8.12109 9.287Z" fill="#7D8596"/>
<path fill-rule="evenodd" clip-rule="evenodd" d="M15.6533 14.3209L14.6707 13.3384C13.8361 12.5038 12.4781 12.5037 11.6433 13.3384L6.68135 18.3003C5.9915 18.9902 4.875 18.9902 4.18512 18.3003L3.274 17.3892C2.85445 16.9697 2.83994 16.3108 3.20614 15.8738C3.86057 16.1833 4.66821 16.0694 5.21042 15.5272L5.69476 15.0428C6.3568 15.3705 7.16275 15.2744 7.72841 14.7754L13.7585 9.45471C14.897 9.40497 15.9904 8.90772 16.8596 8.0385C18.6948 6.20325 18.6948 3.2171 16.8596 1.38181C15.0244 -0.453443 12.0381 -0.453443 10.2029 1.38181C9.33365 2.25115 8.83609 3.34462 8.78647 4.48316L3.46542 10.5137C2.96005 11.0864 2.87532 11.895 3.19822 12.5469L2.71415 13.031C2.17116 13.5741 2.05697 14.3856 2.37089 15.0421C1.5447 15.9439 1.5658 17.3452 2.44197 18.2214L3.35304 19.1325C4.50272 20.2822 6.36367 20.2824 7.51346 19.1325L12.4754 14.1704C12.8512 13.7946 13.4627 13.7946 13.8386 14.1704L14.8212 15.153L15.6533 14.3209ZM4.37838 14.6952C4.14895 14.9245 3.77569 14.9245 3.54626 14.6952C3.31684 14.4657 3.31684 14.0925 3.54626 13.863L3.96232 13.447L4.7944 14.2791L4.37838 14.6952ZM15.5805 7.59157C15.0323 7.99806 14.409 8.23525 13.7688 8.27608L9.96541 4.47265C10.0062 3.83254 10.2434 3.20917 10.6499 2.66089L15.5805 7.59157ZM16.0275 2.21392C17.2622 3.44856 17.3885 5.37733 16.4082 6.75506L11.4864 1.83321C12.8641 0.852941 14.7928 0.979284 16.0275 2.21392ZM4.34778 11.2922L9.39767 5.56906L12.6724 8.84374L6.94984 13.893C6.68853 14.1237 6.29071 14.1112 6.04422 13.8648L4.37602 12.1966C4.12993 11.9505 4.11749 11.5532 4.34778 11.2922Z" fill="#7D8596"/>
<path fill-rule="evenodd" clip-rule="evenodd" d="M3.53024 3.07091V5.8379C3.53024 6.81119 2.7384 7.60302 1.76512 7.60302C0.791832 7.60302 0 6.81119 0 5.8379C0 4.62339 1.20667 3.76723 2.35349 4.17399V1.54443L5.32744 2.32705L5.02796 3.46504L3.53024 3.07091ZM1.17675 5.8379C1.17675 6.16233 1.44069 6.42628 1.76512 6.42628C2.08955 6.42628 2.35349 6.16233 2.35349 5.8379C2.35349 5.51348 2.08955 5.24953 1.76512 5.24953C1.44069 5.24953 1.17675 5.51348 1.17675 5.8379Z" fill="#7D8596"/>
</svg>
