<svg width="18" height="18" viewBox="0 0 18 18" fill="none" xmlns="http://www.w3.org/2000/svg">
<path d="M16.2 1.8H14.4V0.9C14.4 0.402944 13.9971 0 13.5 0C13.0029 0 12.6 0.402944 12.6 0.9V1.8H5.4V0.9C5.4 0.402944 4.99706 0 4.5 0C4.00294 0 3.6 0.402944 3.6 0.9V1.8H1.8C0.80595 1.8 0 2.60595 0 3.6V16.2C0 17.194 0.80595 18 1.8 18H16.2C17.194 18 18 17.194 18 16.2V3.6C18 2.60595 17.194 1.8 16.2 1.8ZM16.2 16.2H1.8V7.2H16.2V16.2ZM16.2 5.4H1.8V3.6H16.2V5.4Z" fill="white"/>
<path d="M10.8 9H9V10.8H10.8V9Z" fill="white"/>
<path d="M14.4 9H12.6V10.8H14.4V9Z" fill="white"/>
<path d="M10.8 12.6H9V14.4H10.8V12.6Z" fill="white"/>
<path d="M7.2 12.6H5.4V14.4H7.2V12.6Z" fill="white"/>
</svg>
