<svg width="95" height="19" viewBox="0 0 95 19" fill="none" xmlns="http://www.w3.org/2000/svg">
<path d="M6.4 18.5C6.23333 18.5 6.09167 18.4417 5.975 18.325C5.85833 18.2083 5.8 18.0667 5.8 17.9V4.075H1.175C1.00833 4.075 0.866667 4.01667 0.75 3.9C0.633333 3.78333 0.575 3.64167 0.575 3.475V1.625C0.575 1.44167 0.625 1.29167 0.725 1.175C0.841667 1.05833 0.991667 0.999999 1.175 0.999999H13.925C14.1083 0.999999 14.2583 1.05833 14.375 1.175C14.4917 1.29167 14.55 1.44167 14.55 1.625V3.475C14.55 3.64167 14.4917 3.78333 14.375 3.9C14.2583 4.01667 14.1083 4.075 13.925 4.075H9.325V17.9C9.325 18.0667 9.26667 18.2083 9.15 18.325C9.03333 18.4417 8.88333 18.5 8.7 18.5H6.4ZM20.2418 18.75C18.2918 18.75 16.7835 18.25 15.7168 17.25C14.6501 16.2333 14.0751 14.85 13.9918 13.1L13.9668 12L13.9918 10.9C14.0751 9.16667 14.6585 7.79167 15.7418 6.775C16.8251 5.75833 18.3251 5.25 20.2418 5.25C22.1585 5.25 23.6585 5.75833 24.7418 6.775C25.8251 7.79167 26.4085 9.16667 26.4918 10.9C26.5085 11.1 26.5168 11.4667 26.5168 12C26.5168 12.5333 26.5085 12.9 26.4918 13.1C26.4085 14.85 25.8335 16.2333 24.7668 17.25C23.7001 18.25 22.1918 18.75 20.2418 18.75ZM20.2418 16.275C21.1251 16.275 21.8085 16 22.2918 15.45C22.7751 14.8833 23.0418 14.0583 23.0918 12.975C23.1085 12.8083 23.1168 12.4833 23.1168 12C23.1168 11.5167 23.1085 11.1917 23.0918 11.025C23.0418 9.94167 22.7751 9.125 22.2918 8.575C21.8085 8.00833 21.1251 7.725 20.2418 7.725C19.3585 7.725 18.6751 8.00833 18.1918 8.575C17.7085 9.125 17.4418 9.94167 17.3918 11.025L17.3668 12L17.3918 12.975C17.4418 14.0583 17.7085 14.8833 18.1918 15.45C18.6751 16 19.3585 16.275 20.2418 16.275ZM32.4705 18.5C32.2538 18.5 32.0788 18.45 31.9455 18.35C31.8288 18.2333 31.7288 18.075 31.6455 17.875L28.0705 6.275C28.0538 6.225 28.0455 6.15 28.0455 6.05C28.0455 5.9 28.0955 5.775 28.1955 5.675C28.3122 5.55833 28.4372 5.5 28.5705 5.5H30.4205C30.6038 5.5 30.7538 5.55 30.8705 5.65C30.9872 5.75 31.0622 5.85833 31.0955 5.975L33.5455 14.25L36.1455 6.05C36.1955 5.9 36.2788 5.775 36.3955 5.675C36.5288 5.55833 36.6955 5.5 36.8955 5.5H38.1455C38.3455 5.5 38.5038 5.55833 38.6205 5.675C38.7538 5.775 38.8455 5.9 38.8955 6.05L41.4955 14.25L43.9455 5.975C43.9622 5.85833 44.0288 5.75 44.1455 5.65C44.2788 5.55 44.4288 5.5 44.5955 5.5H46.4455C46.5955 5.5 46.7205 5.55833 46.8205 5.675C46.9372 5.775 46.9955 5.9 46.9955 6.05L46.9455 6.275L43.3705 17.875C43.3038 18.075 43.2038 18.2333 43.0705 18.35C42.9538 18.45 42.7872 18.5 42.5705 18.5H40.9455C40.5122 18.5 40.2372 18.2917 40.1205 17.875L37.5205 9.975L34.9205 17.875C34.7872 18.2917 34.5038 18.5 34.0705 18.5H32.4705ZM50.0283 18.5C49.8617 18.5 49.72 18.4417 49.6033 18.325C49.4867 18.2083 49.4283 18.0667 49.4283 17.9V6.1C49.4283 5.93333 49.4867 5.79167 49.6033 5.675C49.72 5.55833 49.8617 5.5 50.0283 5.5H52.0783C52.245 5.5 52.3867 5.55833 52.5033 5.675C52.62 5.79167 52.6783 5.93333 52.6783 6.1V7.125C53.6617 5.875 55.0533 5.25 56.8533 5.25C58.3867 5.25 59.6033 5.75833 60.5033 6.775C61.4033 7.775 61.8533 9.14167 61.8533 10.875V17.9C61.8533 18.0667 61.795 18.2083 61.6783 18.325C61.5783 18.4417 61.4367 18.5 61.2533 18.5H59.0533C58.8867 18.5 58.745 18.4417 58.6283 18.325C58.5117 18.2083 58.4533 18.0667 58.4533 17.9V11.025C58.4533 10.0417 58.2117 9.28333 57.7283 8.75C57.2617 8.2 56.5783 7.925 55.6783 7.925C54.795 7.925 54.095 8.2 53.5783 8.75C53.0783 9.3 52.8283 10.0583 52.8283 11.025V17.9C52.8283 18.0667 52.77 18.2083 52.6533 18.325C52.5533 18.4417 52.4117 18.5 52.2283 18.5H50.0283ZM72.1289 18.75C69.8456 18.75 68.0622 18.1583 66.7789 16.975C65.5122 15.7917 64.8372 14.1417 64.7539 12.025C64.7372 11.5417 64.7289 10.7667 64.7289 9.7C64.7289 8.63333 64.7372 7.85833 64.7539 7.375C64.8372 5.30833 65.5206 3.69167 66.8039 2.525C68.1039 1.34167 69.8789 0.749999 72.1289 0.749999C73.6622 0.749999 74.9789 1.00833 76.0789 1.525C77.1789 2.04167 78.0122 2.69167 78.5789 3.475C79.1456 4.24167 79.4456 5 79.4789 5.75V5.8C79.4789 5.93333 79.4289 6.05 79.3289 6.15C79.2289 6.23333 79.1039 6.275 78.9539 6.275H76.3789C76.2122 6.275 76.0872 6.25 76.0039 6.2C75.9206 6.13333 75.8456 6.025 75.7789 5.875C75.5456 5.25833 75.1372 4.73333 74.5539 4.3C73.9706 3.85 73.1622 3.625 72.1289 3.625C70.9622 3.625 70.0456 3.94167 69.3789 4.575C68.7289 5.20833 68.3789 6.18333 68.3289 7.5C68.3122 7.98333 68.3039 8.71667 68.3039 9.7C68.3039 10.6667 68.3122 11.4 68.3289 11.9C68.4289 14.55 69.7122 15.875 72.1789 15.875C73.3622 15.875 74.3122 15.5583 75.0289 14.925C75.7456 14.275 76.1039 13.3167 76.1039 12.05V11.275H73.0539C72.8706 11.275 72.7206 11.2167 72.6039 11.1C72.5039 10.9833 72.4539 10.8333 72.4539 10.65V9.325C72.4539 9.14167 72.5039 8.99167 72.6039 8.875C72.7206 8.75833 72.8706 8.7 73.0539 8.7H79.0289C79.2122 8.7 79.3539 8.75833 79.4539 8.875C79.5706 8.99167 79.6289 9.14167 79.6289 9.325V11.95C79.6289 13.3333 79.3206 14.5417 78.7039 15.575C78.1039 16.5917 77.2372 17.375 76.1039 17.925C74.9706 18.475 73.6456 18.75 72.1289 18.75ZM88.2838 18.75C86.3338 18.75 84.8255 18.25 83.7588 17.25C82.6921 16.2333 82.1171 14.85 82.0338 13.1L82.0088 12L82.0338 10.9C82.1171 9.16667 82.7005 7.79167 83.7838 6.775C84.8671 5.75833 86.3671 5.25 88.2838 5.25C90.2005 5.25 91.7005 5.75833 92.7838 6.775C93.8671 7.79167 94.4505 9.16667 94.5338 10.9C94.5505 11.1 94.5588 11.4667 94.5588 12C94.5588 12.5333 94.5505 12.9 94.5338 13.1C94.4505 14.85 93.8755 16.2333 92.8088 17.25C91.7421 18.25 90.2338 18.75 88.2838 18.75ZM88.2838 16.275C89.1671 16.275 89.8505 16 90.3338 15.45C90.8171 14.8833 91.0838 14.0583 91.1338 12.975C91.1505 12.8083 91.1588 12.4833 91.1588 12C91.1588 11.5167 91.1505 11.1917 91.1338 11.025C91.0838 9.94167 90.8171 9.125 90.3338 8.575C89.8505 8.00833 89.1671 7.725 88.2838 7.725C87.4005 7.725 86.7171 8.00833 86.2338 8.575C85.7505 9.125 85.4838 9.94167 85.4338 11.025L85.4088 12L85.4338 12.975C85.4838 14.0583 85.7505 14.8833 86.2338 15.45C86.7171 16 87.4005 16.275 88.2838 16.275Z" fill="#2A3643"/>
</svg>
