<svg width="16" height="20" viewBox="0 0 16 20" fill="none" xmlns="http://www.w3.org/2000/svg">
<path d="M8.5859 2.92969C8.5859 3.25329 8.3236 3.51562 8 3.51562C7.6764 3.51562 7.41406 3.25329 7.41406 2.92969C7.41406 2.60608 7.6764 2.34375 8 2.34375C8.3236 2.34375 8.5859 2.60608 8.5859 2.92969Z" fill="#7D8596"/>
<path d="M5.65625 4.6875C5.97985 4.6875 6.24219 4.42518 6.24219 4.10157C6.24219 3.77797 5.97985 3.51562 5.65625 3.51562C5.33265 3.51562 5.07031 3.77797 5.07031 4.10157C5.07031 4.42518 5.33265 4.6875 5.65625 4.6875Z" fill="#7D8596"/>
<path d="M10.9297 4.10157C10.9297 4.42518 10.6674 4.6875 10.3438 4.6875C10.0201 4.6875 9.75781 4.42518 9.75781 4.10157C9.75781 3.77797 10.0201 3.51562 10.3438 3.51562C10.6674 3.51562 10.9297 3.77797 10.9297 4.10157Z" fill="#7D8596"/>
<path fill-rule="evenodd" clip-rule="evenodd" d="M1.60656 9.29181C0.897662 9.06521 0.382812 8.40028 0.382812 7.6172C0.382812 6.80771 0.933012 6.12466 1.67895 5.92134C1.5991 5.72067 1.55469 5.5022 1.55469 5.27345C1.55469 4.68544 1.84488 4.14911 2.31703 3.82595C2.39352 3.36314 2.5773 2.93079 2.85703 2.56044C3.20027 2.10607 3.66328 1.7697 4.20629 1.57786C4.52492 1.0981 4.96414 0.731261 5.48855 0.509425C6.01195 0.287941 6.58012 0.22798 7.14559 0.332706C7.57172 0.113878 8.0017 0.00208111 8.4268 1.0797e-05C8.9612 -0.0015517 9.4995 0.166495 9.9972 0.490519C10.4398 0.523878 10.8513 0.649034 11.2227 0.863487C11.7157 1.14814 12.1064 1.5663 12.3637 2.08165C12.879 2.33888 13.2972 2.72966 13.5818 3.22267C13.7227 3.46661 13.8255 3.73302 13.8889 4.01704C14.2453 4.34892 14.4453 4.79505 14.4453 5.27345C14.4453 5.50224 14.4009 5.72071 14.3211 5.92134C15.067 6.12466 15.6172 6.80771 15.6172 7.6172C15.6172 8.40032 15.1023 9.06521 14.3934 9.29185L13.2699 19.4783C13.2371 19.7752 12.9862 20 12.6875 20H3.3125C3.01375 20 2.76285 19.7752 2.73008 19.4783L1.60656 9.29181ZM4.51582 9.37501H2.79477L3.83738 18.8281H5.03715L4.51582 9.37501ZM9.7892 18.8281L10.3105 9.37501H8.5859V18.8281H9.7892ZM6.21074 18.8281H7.41406V9.37501H5.68945L6.21074 18.8281ZM10.9629 18.8281H12.1627L13.2053 9.37501H11.4842L10.9629 18.8281ZM3.45109 4.2222C3.43938 4.44802 3.29871 4.64692 3.08973 4.73325C2.8691 4.82439 2.72656 5.03642 2.72656 5.27345C2.72656 5.59653 2.98941 5.85939 3.3125 5.85939H12.6875C13.0106 5.85939 13.2734 5.59653 13.2734 5.27345C13.2734 5.03247 13.1101 4.88079 13.0127 4.81185C12.8813 4.7188 12.7941 4.57583 12.7713 4.41649C12.7394 4.19278 12.6706 3.98825 12.5669 3.80857C12.3742 3.47482 12.0749 3.21857 11.7014 3.06763C11.554 3.0081 11.4372 2.89126 11.3777 2.74392C11.2267 2.3704 10.9705 2.0711 10.6367 1.87841C10.3882 1.73493 10.1041 1.65935 9.7921 1.65368C9.6719 1.65153 9.5554 1.61243 9.4581 1.54177C9.1231 1.29817 8.7698 1.16978 8.4325 1.17192C8.1498 1.17329 7.84813 1.26884 7.53574 1.45599C7.39945 1.53767 7.23586 1.56048 7.08238 1.51915C6.69336 1.41446 6.30012 1.43853 5.94516 1.58872C5.59004 1.73892 5.29894 2.00439 5.10328 2.35638C5.02605 2.49532 4.8957 2.59689 4.74215 2.63786C4.35301 2.74165 4.02449 2.95915 3.79211 3.26681C3.58746 3.53778 3.46953 3.86814 3.45109 4.2222ZM13.8594 7.03126H2.14062C1.81754 7.03126 1.55469 7.29411 1.55469 7.6172C1.55469 7.94028 1.81754 8.20314 2.14062 8.20314H13.8594C14.1825 8.20314 14.4453 7.94028 14.4453 7.6172C14.4453 7.29411 14.1825 7.03126 13.8594 7.03126Z" fill="#7D8596"/>
</svg>
