<svg width="20" height="20" viewBox="0 0 20 20" fill="none" xmlns="http://www.w3.org/2000/svg">
<path fill-rule="evenodd" clip-rule="evenodd" d="M0.625 0H19.375C19.6986 0 19.9609 0.262344 19.9609 0.585938V11.1328C19.9609 11.4564 19.6986 11.7188 19.375 11.7188H0.625C0.301406 11.7188 0.0390625 11.4564 0.0390625 11.1328V0.585938C0.0390625 0.262344 0.301406 0 0.625 0ZM17.6716 6.25H18.7891V1.17188H16.0547V2.12066C16.0547 3.66582 16.6273 5.12277 17.6716 6.25ZM4.91453 9.375C5.01746 9.75453 5.08238 10.1468 5.10637 10.5469H14.8936C14.9176 10.1468 14.9825 9.75453 15.0854 9.375H4.91453ZM4.45391 8.20312H15.5461C15.7146 7.88316 15.9132 7.57859 16.1406 7.29379C13.2601 6.71047 11.0704 4.20031 10.9798 1.17188H9.0202C8.92961 4.20031 6.73992 6.71047 3.85941 7.29379C4.08684 7.57859 4.28547 7.88316 4.45391 8.20312ZM14.8828 2.12066V1.17188H12.152C12.2378 3.5198 13.8662 5.48039 16.0513 6.06902C15.8117 5.69977 15.6055 5.30848 15.435 4.89676C15.0686 4.01219 14.8828 3.07816 14.8828 2.12066ZM4.565 4.8968C4.39445 5.30848 4.18824 5.69977 3.94875 6.06906C6.13383 5.48039 7.76219 3.5198 7.84801 1.17188H5.11719V2.12066C5.11719 3.07816 4.93141 4.01219 4.565 4.8968ZM3.94531 1.17188H1.21094V6.25H2.3284C3.37266 5.12277 3.94531 3.66582 3.94531 2.12066V1.17188ZM1.21094 7.42188V10.5469H3.93207C3.84102 9.33762 3.28352 8.22238 2.36578 7.42188H1.21094ZM16.0679 10.5469H18.7891V7.42188H17.6342C16.7165 8.22238 16.159 9.33762 16.0679 10.5469Z" fill="#7D8596"/>
<path fill-rule="evenodd" clip-rule="evenodd" d="M15.625 12.9688C16.9664 12.9688 18.0598 14.0477 18.0848 15.3833C19.1603 15.6465 19.9609 16.618 19.9609 17.7733V19.4141C19.9609 19.7377 19.6986 20 19.375 20H0.625C0.301406 20 0.0390625 19.7377 0.0390625 19.4141V17.7733C0.0390625 16.618 0.839726 15.6465 1.91523 15.3833C1.94016 14.0477 3.03359 12.9688 4.375 12.9688C5.12555 12.9688 5.79824 13.3069 6.25 13.8384C6.70176 13.3069 7.37445 12.9688 8.125 12.9688C8.87555 12.9688 9.54824 13.3069 10 13.8384C10.4518 13.3069 11.1245 12.9688 11.875 12.9688C12.6255 12.9688 13.2982 13.3069 13.75 13.8384C14.2018 13.3069 14.8745 12.9688 15.625 12.9688ZM1.21094 17.7733V18.8281H3.78906V17.7733C3.78906 17.0627 3.21078 16.4844 2.5 16.4844C1.78922 16.4844 1.21094 17.0627 1.21094 17.7733ZM3.08711 15.3837C3.59719 15.5091 4.04504 15.7939 4.375 16.1821C4.70496 15.7939 5.15281 15.5091 5.66289 15.3837C5.63863 14.6941 5.07039 14.1406 4.375 14.1406C3.67961 14.1406 3.11137 14.6941 3.08711 15.3837ZM4.96094 17.7733V18.8281H7.53906V17.7733C7.53906 17.0627 6.96078 16.4844 6.25 16.4844C5.53922 16.4844 4.96094 17.0627 4.96094 17.7733ZM6.83711 15.3837C7.34719 15.5091 7.79504 15.7939 8.125 16.1821C8.45496 15.7939 8.90281 15.5091 9.41289 15.3837C9.38863 14.6941 8.82039 14.1406 8.125 14.1406C7.42961 14.1406 6.86137 14.6941 6.83711 15.3837ZM8.71094 18.8281H11.2891V17.7733C11.2891 17.0627 10.7108 16.4844 10 16.4844C9.28922 16.4844 8.71094 17.0627 8.71094 17.7733V18.8281ZM10.5871 15.3837C11.0972 15.5091 11.545 15.7939 11.875 16.1821C12.205 15.7939 12.6528 15.5091 13.1629 15.3837C13.1386 14.6941 12.5704 14.1406 11.875 14.1406C11.1796 14.1406 10.6114 14.6941 10.5871 15.3837ZM12.4609 17.7733V18.8281H15.0391V17.7733C15.0391 17.0627 14.4608 16.4844 13.75 16.4844C13.0392 16.4844 12.4609 17.0627 12.4609 17.7733ZM14.3371 15.3837C14.8472 15.5091 15.295 15.7939 15.625 16.1821C15.955 15.7939 16.4028 15.5091 16.9129 15.3837C16.8886 14.6941 16.3204 14.1406 15.625 14.1406C14.9296 14.1406 14.3614 14.6941 14.3371 15.3837ZM16.2109 17.7733V18.8281H18.7891V17.7733C18.7891 17.0627 18.2108 16.4844 17.5 16.4844C16.7892 16.4844 16.2109 17.0627 16.2109 17.7733Z" fill="#7D8596"/>
</svg>
