<svg width="20" height="20" viewBox="0 0 20 20" fill="none" xmlns="http://www.w3.org/2000/svg">
<path d="M17.0711 2.92891C15.1823 1.0402 12.6711 0 10 0C7.32891 0 4.8177 1.0402 2.92891 2.92891C1.0402 4.8177 0 7.32891 0 10C0 12.6711 1.0402 15.1823 2.92891 17.0711C4.8177 18.9598 7.32891 20 10 20C11.8286 20 13.6178 19.5017 15.1743 18.5589C15.5433 18.3353 15.6613 17.8549 15.4377 17.4859C15.2141 17.1168 14.7338 16.9989 14.3647 17.2224C13.275 17.8825 12.0493 18.2839 10.7812 18.4012V10.7812H13.5884C13.6711 11.8574 13.925 12.9029 14.3469 13.8986C14.4731 14.1964 14.7623 14.3752 15.0666 14.3752C15.1682 14.3752 15.2716 14.3552 15.3711 14.3131C15.7684 14.1447 15.9539 13.6862 15.7856 13.2889C15.4459 12.4872 15.2357 11.6466 15.1567 10.7812H18.4009C18.2708 12.1678 17.7955 13.5032 17.0068 14.683C16.767 15.0417 16.8634 15.5269 17.222 15.7667C17.5808 16.0066 18.0659 15.9101 18.3057 15.5514C19.4141 13.8935 20 11.9739 20 10C20 7.32891 18.9598 4.8177 17.0711 2.92891ZM1.59902 10.7812H4.84266C4.69992 12.3145 4.13992 13.7829 3.22316 15.0207C2.32652 13.8136 1.74461 12.3597 1.59902 10.7812ZM9.21875 18.401C7.32465 18.2263 5.61004 17.423 4.28582 16.2021C5.51676 14.6461 6.25559 12.7559 6.41055 10.7813H9.21875V18.401ZM9.21875 9.21875H6.41148C6.32996 8.15805 6.08207 7.1268 5.67094 6.14383C5.50441 5.74582 5.04691 5.55797 4.64871 5.72457C4.25066 5.89105 4.06297 6.34875 4.22945 6.74676C4.56031 7.53773 4.76551 8.36637 4.84332 9.21871H1.59902C1.97082 5.18855 5.18859 1.97082 9.21875 1.59898V9.21875ZM13.5894 9.21871H10.7812V1.59898C12.6752 1.77371 14.3898 2.57684 15.7139 3.7977C14.4821 5.35457 13.7441 7.24223 13.5894 9.21871ZM15.1572 9.21875C15.2996 7.68414 15.8598 6.21781 16.7771 4.97957C17.6736 6.18664 18.2554 7.64043 18.401 9.21875H15.1572Z" fill="#7D8596"/>
</svg>
